<?xml version="1.0" encoding="UTF-8"?>
<svg id="Camada_3" data-name="Camada 3" xmlns="http://www.w3.org/2000/svg" viewBox="0 0 1012.46 809.05">
  <defs>
    <style>
      .cls-1 {
        fill: none;
        stroke: #dbdbdd;
        stroke-miterlimit: 10;
        stroke-width: .5px;
      }
    </style>
  </defs>
  <path class="cls-1" d="M479.91,170.56l277.36,569.91c18.72,38.82,53.9,58.24,105.55,58.24,29.2,0,56.89-8.32,83.1-24.96,36.68-20.8,55.02-52.7,55.02-95.69,0-16.64-4.12-33.27-12.35-49.91L712.35,58.24C693.64,19.42,658.46,0,606.8,0c-29.19,0-56.9,8.33-83.1,24.96-36.68,20.79-55.02,52.69-55.02,95.68,0,18.03,3.74,34.67,11.23,49.92"/>
  <path class="cls-1" d="M-138.82,782.06c21.71,11.1,44.92,16.65,69.62,16.65,53.15,0,88.71-19.42,106.68-58.24l211.11-455.51,121.28,243.36c13.48,27.73,37.06,41.6,70.75,41.6,18.72,0,37.05-5.55,55.02-16.65,23.96-13.87,35.93-34.67,35.93-62.4,0-13.86-2.62-25.65-7.86-35.35L311.47,64.48c-4.49-6.93-10.1-13.17-16.84-18.72C266.93,15.26,231,0,186.82,0c-51.65,0-86.84,19.42-105.55,58.24L-194.96,628.15c-8.24,16.64-12.35,33.27-12.35,49.91,0,45.77,22.83,80.43,68.5,104"/>
</svg>